<svg id="svg" version="1.1" xmlns="http://www.w3.org/2000/svg" viewBox="0 0 125 129" style="display: block;"><path d="M0 0 C41.25 0 82.5 0 125 0 C125 42.57 125 85.14 125 129 C83.75 129 42.5 129 0 129 C0 86.43 0 43.86 0 0 Z " transform="translate(0,0)" style="fill: #FDFDFD;"/><path d="M0 0 C0.33 0 0.66 0 1 0 C1 25.08 1 50.16 1 76 C-5.27 76 -11.54 76 -18 76 C-18 75.67 -18 75.34 -18 75 C-13.05 75 -8.1 75 -3 75 C-3.33 64.44 -3.66 53.88 -4 43 C-6.10375 46.91875 -8.2075 50.8375 -10.375 54.875 C-14.63556662 62.80033623 -18.91857806 70.71011909 -23.3125 78.5625 C-27.3009665 85.69125483 -31.14580784 92.88830173 -34.94921875 100.1171875 C-37.57759363 105.10851932 -40.284162 110.05578211 -43 115 C-37.72 115 -32.44 115 -27 115 C-27 115.66 -27 116.32 -27 117 C-38.88 117 -50.76 117 -63 117 C-61.69456453 113.73641132 -60.51911264 110.96542077 -58.828125 107.9609375 C-58.41433594 107.22174072 -58.00054687 106.48254395 -57.57421875 105.72094727 C-57.13722656 104.94678467 -56.70023438 104.17262207 -56.25 103.375 C-55.33829303 101.7462329 -54.42683339 100.11732733 -53.515625 98.48828125 C-53.07798828 97.70791504 -52.64035156 96.92754883 -52.18945312 96.12353516 C-48.49638346 89.53028394 -44.93044853 82.87580778 -41.42871094 76.17944336 C-37.35923595 68.40095436 -33.18506693 60.71397811 -28.79296875 53.11328125 C-24.99764899 46.52315086 -21.42639905 39.81566081 -17.8828125 33.08789062 C-17.50898437 32.37826172 -17.13515625 31.66863281 -16.75 30.9375 C-16.37488281 30.22529297 -15.99976563 29.51308594 -15.61328125 28.77929688 C-12.25659388 22.43200381 -8.78386065 16.15235087 -5.27441406 9.88842773 C-4.87577148 9.17630127 -4.47712891 8.4641748 -4.06640625 7.73046875 C-3.5396228 6.79303833 -3.5396228 6.79303833 -3.00219727 5.83666992 C-1.9527877 3.91347671 -0.96851689 1.96500049 0 0 Z " transform="translate(115,4)" style="fill: #2B3037;"/><path d="M0 0 C0.33 0 0.66 0 1 0 C1.06941159 10.13535144 1.12276615 20.27064664 1.15543652 30.40618706 C1.17111411 35.11218517 1.19239036 39.81802105 1.22631836 44.52392578 C1.25883745 49.0626498 1.27683723 53.60121748 1.28463173 58.14004898 C1.29018868 59.87447701 1.30103963 61.60889617 1.31719017 63.3432579 C1.33886587 65.76662658 1.34197113 68.18934347 1.34057617 70.61279297 C1.351362 71.33496002 1.36214783 72.05712708 1.3732605 72.80117798 C1.36076355 74.79830933 1.36076355 74.79830933 1 78 C0.01 78.66 -0.98 79.32 -2 80 C-2 77.03 -2 74.06 -2 71 C-6.62 71 -11.24 71 -16 71 C-16 70.67 -16 70.34 -16 70 C-11.38 70 -6.76 70 -2 70 C-2.33 60.1 -2.66 50.2 -3 40 C-4.65 43.17625 -6.3 46.3525 -8 49.625 C-11.93428975 57.1639262 -15.98580185 64.60615774 -20.24609375 71.96484375 C-24.24614241 78.88697695 -27.98271095 85.94504067 -31.67431641 93.03515625 C-32.55523904 94.71458739 -33.4455057 96.3891516 -34.34521484 98.05859375 C-36.19468198 101.49164559 -37.92468034 104.80688389 -39.34375 108.4453125 C-40.62650772 111.48752844 -41.30178847 113.07063369 -44 115 C-49.94383284 116.15550424 -56.01841467 115.5643005 -62 115 C-60.42006355 110.77763489 -58.41415251 106.8344365 -56.296875 102.86328125 C-55.93660217 102.18379929 -55.57632935 101.50431732 -55.20513916 100.804245 C-54.44319773 99.36890714 -53.679967 97.93425304 -52.91552734 96.50024414 C-51.76400846 94.33879448 -50.61804998 92.17446601 -49.47265625 90.00976562 C-45.87614423 83.23463652 -42.22112193 76.53336979 -38.21582031 69.98803711 C-34.52597494 63.95462127 -31.30372576 57.65655188 -28.1875 51.3125 C-24.78976809 44.45525923 -21.01254578 37.83263807 -17.23388672 31.18115234 C-15.07298961 27.36131562 -12.9425303 23.52461008 -10.8125 19.6875 C-10.18384033 18.55538086 -10.18384033 18.55538086 -9.54248047 17.40039062 C-6.33378206 11.61533722 -3.15161037 5.81638661 0 0 Z " transform="translate(67,5)" style="fill: #830606;"/><path d="M0 0 C0.99140745 10.98260388 1.12097056 21.85826433 1.0625 32.875 C1.05746914 34.54557156 1.05290907 36.2161446 1.04882812 37.88671875 C1.03796159 41.92451682 1.02078681 45.96224132 1 50 C0.67 50 0.34 50 0 50 C-0.33 39.44 -0.66 28.88 -1 18 C-3.10375 21.91875 -5.2075 25.8375 -7.375 29.875 C-11.63556662 37.80033623 -15.91857806 45.71011909 -20.3125 53.5625 C-24.3009665 60.69125483 -28.14580784 67.88830173 -31.94921875 75.1171875 C-34.57759363 80.10851932 -37.284162 85.05578211 -40 90 C-34.72 90 -29.44 90 -24 90 C-24 90.66 -24 91.32 -24 92 C-35.88 92 -47.76 92 -60 92 C-59.505 91.01 -59.505 91.01 -59 90 C-56.03 90.33 -53.06 90.66 -50 91 C-49.72687988 90.28320068 -49.45375977 89.56640137 -49.17236328 88.82788086 C-48.0105872 86.02553761 -46.68906626 83.41922193 -45.2421875 80.75390625 C-44.70279541 79.75842773 -44.16340332 78.76294922 -43.60766602 77.73730469 C-43.03588623 76.68961914 -42.46410645 75.64193359 -41.875 74.5625 C-41.28968506 73.48516602 -40.70437012 72.40783203 -40.10131836 71.29785156 C-36.98457263 65.57786837 -33.8291769 59.88565359 -30.5625 54.25 C-28.29215486 50.32635373 -26.16749477 46.38994686 -24.1875 42.3125 C-21.5770634 36.9707074 -18.6362628 31.87154598 -15.625 26.75 C-11.2384502 19.28875877 -7.23678081 11.71572288 -3.4609375 3.9296875 C-1.50133333 0 -1.50133333 0 0 0 Z " transform="translate(112,29)" style="fill: #474E59;"/><path d="M0 0 C0.66 0 1.32 0 2 0 C3.07608488 16.06156325 3.07608488 16.06156325 -2.296875 23.59375 C-4.14970006 26.21150283 -5.49035224 28.85897721 -6.875 31.75 C-9.09710719 36.28146989 -11.477435 40.6926321 -14 45.0625 C-14.34417969 45.65877197 -14.68835937 46.25504395 -15.04296875 46.86938477 C-15.38199219 47.45647217 -15.72101562 48.04355957 -16.0703125 48.6484375 C-20.12015216 55.68236955 -23.9236309 62.83959312 -27.67651367 70.03515625 C-29.39219507 73.31143994 -31.13244606 76.57446933 -32.87060547 79.83886719 C-33.83739197 81.68884429 -34.75404796 83.56487129 -35.66015625 85.4453125 C-38.00918566 90.03867921 -38.00918566 90.03867921 -40 92 C-43.16138876 92.78904083 -45.82289251 92.6354215 -49 92 C-44.93957239 81.34902908 -39.33841585 71.34042112 -33.3659668 61.66235352 C-30.1678213 56.42319089 -27.4341493 51.01202635 -24.74267578 45.49926758 C-22.76001566 41.4575375 -20.64455127 37.63358846 -18.1875 33.8671875 C-11.34161368 23.10293204 -5.8945045 11.2996361 0 0 Z " transform="translate(63,28)" style="fill: #610202;"/></svg>